<?xml version="1.0" encoding="UTF-8" standalone="no"?>
<svg width="100px" height="100px" viewBox="0 0 100 100" version="1.1" xmlns="http://www.w3.org/2000/svg" xmlns:xlink="http://www.w3.org/1999/xlink">
    <!-- Generator: Sketch 40.2 (33826) - http://www.bohemiancoding.com/sketch -->
    <title>vacancies</title>
    <desc>Created with Sketch.</desc>
    <defs></defs>
    <g id="Page-1" stroke="none" stroke-width="1" fill="none" fill-rule="evenodd">
        <g id="Artboard" fill="#000000">
            <g id="Group" transform="translate(50.154329, 50.154329) rotate(-45.000000) translate(-50.154329, -50.154329) translate(28.154329, -5.845671)">
                <path d="M15.394861,59.6833645 L3.24193149,59.6833645 C3.1633276,59.6795301 3.08280653,59.6795301 3.00420263,59.6737786 C2.76839094,59.6526898 2.53257924,59.6047606 2.30827056,59.5261567 C1.47621954,59.2404986 0.807127829,58.5733241 0.521469761,57.741273 C0.444783032,57.5150472 0.394936657,57.2811527 0.375764975,57.0434238 C0.37001347,56.9648199 0.37001347,56.886216 0.366179134,56.8076121 C0.366179134,51.9801825 0.325918601,47.1527529 0.37001347,42.3272404 C0.389185153,41.0504064 0.448617368,39.7754895 0.557895958,38.5024898 C0.793707651,35.770525 1.24424219,33.0558148 1.9075824,30.3928681 C3.40489079,24.3787113 5.98156491,18.642544 9.48614845,13.5294563 C11.22502,10.9911255 13.1920347,8.61958841 15.3450146,6.4225136 L20.0861716,1.61233849 C20.2644683,1.44554485 20.4408478,1.29408856 20.6498191,1.16755546 C20.9929922,0.960501288 21.378343,0.826299511 21.7751969,0.776453137 C21.9880025,0.749612782 22.0416833,0.757281455 22.2544889,0.757281455 C22.3330928,0.763032959 22.4136139,0.770701632 22.494135,0.776453137 C22.7031063,0.812879334 22.7587042,0.814796502 22.961924,0.876145886 C23.2686709,0.968169961 23.5600805,1.11195758 23.8188982,1.29984007 C23.9914434,1.424456 24.0278696,1.4666337 24.1831602,1.61233849 C25.9066944,3.36079592 27.6551519,5.10925336 29.3671831,6.87879964 C30.2490805,7.80095757 31.1022204,8.75187302 31.9170169,9.73346315 C33.6693086,11.8461826 35.2528896,14.0969381 36.6485881,16.4588893 C39.804247,21.7924514 41.9955703,27.6877437 43.086439,33.7881731 C43.6289976,36.8172989 43.8935669,39.8866852 43.9031527,42.9637403 L43.9031527,56.8076121 C43.8993184,56.886216 43.8993184,56.9648199 43.8935669,57.0434238 C43.872478,57.2811527 43.8245488,57.5150472 43.7459449,57.741273 C43.4602868,58.5733241 42.7931123,59.2404986 41.9610613,59.5261567 C41.7348354,59.6047606 41.5009409,59.6526898 41.2651292,59.6737786 C41.1846081,59.6795301 41.1060042,59.6795301 41.0274003,59.6833645 L28.8725537,59.6833645 C28.864885,61.6465448 28.8591335,63.6116422 28.8552992,65.5748225 C29.6892674,65.5901598 30.5232355,65.6131658 31.3572037,65.6419234 C31.633276,65.6725981 31.895928,65.7186101 32.1566629,65.8163857 C32.933116,66.1058781 33.5581129,66.7308749 33.8456881,67.5054109 C33.9185405,67.6990449 33.970304,67.8984304 33.9990616,68.1016502 C34.0239848,68.281864 34.0220676,68.3278761 34.0278191,68.5119242 C34.0278191,78.8684671 34.2214531,89.2269271 34.0239848,99.5815527 C34.0086474,100.085768 33.9664697,100.586149 33.8917001,101.084613 C33.7134035,102.244499 33.3625617,103.375629 32.8545121,104.433906 C32.1911719,105.808515 31.2632625,107.05084 30.1321332,108.078442 C29.2847449,108.849144 28.3261607,109.49523 27.2947242,109.993693 C24.7793995,111.205344 21.8633866,111.487167 19.1620966,110.793153 C18.3147082,110.574595 17.4941602,110.264014 16.7157899,109.865243 C15.6134181,109.299679 14.5992361,108.561569 13.7230903,107.685423 C12.7108254,106.671241 11.8826088,105.476845 11.2921209,104.171253 C10.8492551,103.189663 10.540591,102.148641 10.3776317,101.084613 C10.300945,100.586149 10.2606844,100.085768 10.2453471,99.5815527 C10.0478787,89.2269271 10.2415127,78.8684671 10.2415127,68.5119242 C10.2472642,68.3278761 10.2434299,68.281864 10.2702703,68.1016502 C10.2990278,67.8984304 10.3507913,67.6990449 10.4217266,67.5054109 C10.7361421,66.663774 11.4435772,66.0042682 12.3063029,65.751202 C12.5727893,65.6725981 12.8392757,65.6457577 13.1172651,65.6361719 C13.8822152,65.6361719 14.6471654,65.6323375 15.4140326,65.626586 C15.4101983,63.6461512 15.4025296,61.6637993 15.394861,59.6833645 L15.394861,59.6833645 Z M15.9930175,71.3876766 C15.9930175,80.7626293 15.6996907,90.1433335 15.9968518,99.516369 C16.0045205,99.6735768 16.0160235,99.8288674 16.033278,99.9860752 C16.1387222,100.860304 16.420546,101.703858 16.8787492,102.457305 C17.2890232,103.132148 17.8277475,103.724553 18.460413,104.198094 C18.9358707,104.55277 19.463092,104.838428 20.0209879,105.043565 C21.6601668,105.643639 23.5274886,105.509437 25.0612232,104.675469 C25.6248707,104.370639 26.1386718,103.975702 26.5815376,103.511748 C27.0589125,103.011367 27.4500149,102.432382 27.7356729,101.801634 C28.0961006,101.004092 28.2705629,100.141366 28.2763144,99.2671371 L28.2763144,71.3876766 L15.9930175,71.3876766 L15.9930175,71.3876766 Z M23.2916769,55.7800099 C23.4718908,49.4552719 23.6425187,43.1305339 23.0961258,36.8364706 C23.0884571,36.7751212 23.0769541,36.7137718 23.0577824,36.6524224 C22.9408352,36.2824089 22.6206681,36.0178397 22.2334001,35.975662 C22.1912224,35.9718277 22.1490447,35.9699105 22.106867,35.9699105 C21.7215162,35.9852479 21.3725915,36.2229767 21.2326383,36.5853215 C21.1923777,36.6888486 21.173206,36.7981272 21.1693717,36.909323 L21.1674545,36.9495835 L21.1674545,65.5671538 C21.8116231,65.5614023 22.4557916,65.5556508 23.0999601,65.5518165 C23.1018773,62.9291303 23.1632267,60.304527 23.2360791,57.6799237 C23.0424451,57.0625955 23.0596996,56.3858351 23.2916769,55.7800099 L23.2916769,55.7800099 Z M28.8955597,53.9318598 L38.151648,53.9318598 C38.151648,50.0860203 38.1823227,46.2420979 38.1478136,42.3981756 C38.1420621,42.0185763 38.1324763,41.638977 38.1190561,41.2593777 C38.0136119,38.6251885 37.7011134,36.0044195 37.1566377,33.4239111 C36.0600174,28.2130478 34.0584938,23.1996529 31.2632625,18.66555 C30.0324405,16.6659435 28.6463278,14.7602783 27.1260134,12.9715603 C26.3879037,12.1030831 25.617202,11.2671977 24.8215772,10.4524012 L22.1337073,7.72810518 C21.1061052,8.7710447 20.067,9.81014988 19.0470665,10.8645924 C18.7844144,11.1387475 18.5255967,11.4148197 18.2686962,11.6947263 C16.4933984,13.6444864 14.8772255,15.7322826 13.4527695,17.9523634 C10.5770172,22.4347027 8.48538663,27.4097543 7.29290798,32.5995288 C6.76760389,34.8886276 6.41484493,37.217987 6.24229979,39.5607666 C6.15986155,40.6957302 6.12151819,41.8345282 6.11768385,42.9714089 L6.11768385,53.9318598 L15.3718549,53.9318598 C15.3526833,48.2091126 15.3469318,42.4863654 15.417867,36.7655353 C15.4466245,35.9948337 15.588495,35.2375522 15.8664844,34.5147798 C16.2230776,33.5907047 16.7848079,32.750985 17.5018289,32.0684731 C18.2188498,31.3878784 19.0834927,30.8683258 20.0209879,30.5577446 C20.6977483,30.3334359 21.4013491,30.2279916 22.1126185,30.2184058 C22.175885,30.2184058 22.2410688,30.220323 22.3043353,30.220323 C23.0213562,30.2471633 23.724957,30.3698621 24.4017174,30.6114253 C26.2249444,31.2651797 27.7049982,32.7088073 28.4009303,34.5147798 C28.6808369,35.2375522 28.8207902,35.9948337 28.8495477,36.7655353 C28.9204829,42.4863654 28.9147314,48.2091126 28.8955597,53.9318598 L28.8955597,53.9318598 Z" id="Shape"></path>
            </g>
        </g>
    </g>
</svg>