<?xml version="1.0" ?><svg enable-background="new 0 0 32 32" version="1.1" viewBox="0 0 32 32" xml:space="preserve" xmlns="http://www.w3.org/2000/svg" xmlns:xlink="http://www.w3.org/1999/xlink"><g id="Christmas"/><g id="Shop_1_"><g id="shipping"><g><path d="M17,26c1.1,0,2,0.9,2,2s-0.9,2-2,2s-2-0.9-2-2S15.9,26,17,26 M17,24c-2.2,0-4,1.8-4,4s1.8,4,4,4s4-1.8,4-4S19.2,24,17,24     L17,24z"/></g><polyline fill="none" points="28,20 23,25 3,5     1,7   " stroke="#000000" stroke-linecap="round" stroke-miterlimit="10" stroke-width="2"/><rect fill="none" height="11.3" stroke="#000000" stroke-linecap="round" stroke-miterlimit="10" stroke-width="2" transform="matrix(-0.7071 -0.7071 0.7071 -0.7071 30.2782 35.5416)" width="12.7" x="16.1" y="5.8"/><line fill="none" stroke="#000000" stroke-linecap="round" stroke-miterlimit="10" stroke-width="2" x1="18" x2="26" y1="15" y2="7"/><line fill="none" stroke="#000000" stroke-linecap="round" stroke-miterlimit="10" stroke-width="2" x1="18" x2="27" y1="7" y2="16"/></g></g></svg>